<svg width="21" height="24" viewBox="0 0 21 24" fill="none" xmlns="http://www.w3.org/2000/svg">
<path d="M3.50592 3.43939C5.27671 1.70402 7.66079 0.737598 10.1401 0.75012C12.6194 0.762642 14.9936 1.7531 16.7468 3.50626C18.5 5.25943 19.4904 7.63363 19.5029 10.1129C19.5155 12.5923 18.549 14.9763 16.8137 16.7471L11.8399 21.7209C11.3943 22.1664 10.7899 22.4167 10.1598 22.4167C9.52966 22.4167 8.92533 22.1664 8.47969 21.7209L3.50592 16.7471C1.74133 14.9823 0.75 12.5889 0.75 10.0933C0.75 7.59761 1.74133 5.20417 3.50592 3.43939Z" stroke="white" stroke-width="1.5" stroke-linejoin="round"/>
<path d="M10.1573 13.6584C12.126 13.6584 13.7219 12.0625 13.7219 10.0939C13.7219 8.12521 12.126 6.5293 10.1573 6.5293C8.18869 6.5293 6.59277 8.12521 6.59277 10.0939C6.59277 12.0625 8.18869 13.6584 10.1573 13.6584Z" stroke="white" stroke-width="1.5" stroke-linecap="round" stroke-linejoin="round"/>
</svg>
